<svg width="38" height="48" viewBox="0 0 38 48" fill="none" xmlns="http://www.w3.org/2000/svg">
<path fill-rule="evenodd" clip-rule="evenodd" d="M0.0904341 17.2843C0.998623 7.7871 8.85983 0.346832 18.3226 0.0122168C29.1232 -0.371607 38 8.33824 38 19.1443C38 20.3844 37.8828 21.5949 37.6582 22.7759C37.6582 22.7759 37.6191 22.9924 37.5313 23.3762C37.2383 24.7049 36.8086 25.9744 36.252 27.1751C34.3379 31.7416 29.9337 39.3492 20.0511 47.6162C19.4358 48.1279 18.5472 48.1279 17.9417 47.6162C8.05906 39.3394 3.65483 31.7318 1.75056 27.185C1.2037 25.9843 0.764252 24.7049 0.471288 23.3861C0.373633 22.9924 0.344336 22.7857 0.344336 22.7857C0.0123103 21.0241 -0.0951099 19.1837 0.0904341 17.2843ZM9.76802 19.3707C9.76802 24.508 13.8988 28.671 18.9964 28.671C24.094 28.671 28.2248 24.508 28.2248 19.3707C28.2248 14.2334 24.094 10.0704 18.9964 10.0704C13.8988 10.0704 9.76802 14.2334 9.76802 19.3707Z" fill="#0666F6"/>
</svg>
