<svg width="48" height="48" viewBox="0 0 48 48" fill="none" xmlns="http://www.w3.org/2000/svg">
<circle cx="24" cy="24" r="23.5" stroke="white" stroke-opacity="0.295743"/>
<path fill-rule="evenodd" clip-rule="evenodd" d="M31.5804 27.7424L29.3429 25.5095C28.5438 24.7121 27.1853 25.0311 26.8656 26.0677C26.6259 26.7855 25.8267 27.1842 25.1075 27.0247C23.5093 26.626 21.3517 24.5526 20.9521 22.878C20.7124 22.1602 21.1918 21.3628 21.911 21.1236C22.9499 20.8046 23.2696 19.4489 22.4704 18.6515L20.2329 16.4187C19.5936 15.8604 18.6346 15.8604 18.0752 16.4187L16.5569 17.9338C15.0386 19.5287 16.7167 23.7552 20.4726 27.5031C24.2285 31.2511 28.4639 33.0055 30.0621 31.4106L31.5804 29.8955C32.1399 29.2575 32.1399 28.3006 31.5804 27.7424Z" fill="white"/>
</svg>
